<?xml version="1.0" encoding="UTF-8"?>
<!DOCTYPE svg PUBLIC "-//W3C//DTD SVG 1.1//EN" "http://www.w3.org/Graphics/SVG/1.1/DTD/svg11.dtd">
<!-- Creator: CorelDRAW 2021 (64-Bit) -->
<svg xmlns="http://www.w3.org/2000/svg" xml:space="preserve" width="6.50516in" height="6.50516in" version="1.1" style="shape-rendering:geometricPrecision; text-rendering:geometricPrecision; image-rendering:optimizeQuality; fill-rule:evenodd; clip-rule:evenodd"
viewBox="0 0 6702.6 6702.6"
 xmlns:xlink="http://www.w3.org/1999/xlink"
 xmlns:xodm="http://www.corel.com/coreldraw/odm/2003">
 <defs>
  <style type="text/css">
   <![CDATA[
    .fil0 {fill:#990000}
    .fil2 {fill:#990000;fill-rule:nonzero}
    .fil1 {fill:#FFCC00;fill-rule:nonzero}
   ]]>
  </style>
 </defs>
 <g id="Layer_x0020_1">
  <metadata id="CorelCorpID_0Corel-Layer"/>
  <g id="_2463173146592">
   <path class="fil0" d="M3351.3 0c1850.87,0 3351.3,1500.43 3351.3,3351.3 0,1850.87 -1500.43,3351.3 -3351.3,3351.3 -1850.87,0 -3351.3,-1500.43 -3351.3,-3351.3 0,-1850.87 1500.43,-3351.3 3351.3,-3351.3zm0 812.91c-1401.68,0 -2538.39,1136.71 -2538.39,2538.39 0,1401.68 1136.71,2538.39 2538.39,2538.39 1401.68,0 2538.39,-1136.71 2538.39,-2538.39 0,-1401.68 -1136.71,-2538.39 -2538.39,-2538.39z"/>
   <path class="fil1" d="M4325.23 2199.07c-179.26,0 -324.65,145.38 -324.65,324.64 0,179.26 145.38,324.65 324.65,324.65 179.26,0 324.64,-145.38 324.64,-324.65 0,-179.26 -145.38,-324.64 -324.64,-324.64z"/>
   <path class="fil2" d="M4117.46 4167.47c-216.86,174.86 -487.48,270.39 -766.16,270.39 -278.68,0 -549.3,-95.53 -766.13,-270.33 -58.35,-48.55 -131.92,-75.14 -207.8,-75.14 -179.49,0 -325.05,145.56 -325.05,325.05 0,96.59 43.02,188.26 117.27,249.97 331.43,276.69 749.93,428.42 1181.72,428.42 431.79,0 850.29,-151.73 1181.67,-428.41 74.3,-61.72 117.32,-153.39 117.32,-249.98 0,-179.49 -145.56,-325.05 -325.05,-325.05 -75.88,0 -149.45,26.59 -207.79,75.08l0.01 -0z"/>
   <path class="fil1" d="M2189.07 3241.18c60.77,60.26 143.02,94.15 228.62,94.15 0.6,0 1.27,0 1.86,0 0.63,0 1.3,0 1.89,0 85.61,0 167.85,-33.88 228.61,-94.17l486.97 -486.97c61.44,-60.88 96.04,-143.91 96.04,-230.47 0,-86.56 -34.6,-169.59 -96.03,-230.51l-486.97 -486.97c-61.07,-61.07 -144.05,-95.45 -230.49,-95.45 -180,0 -325.97,145.97 -325.97,325.97 0,86.44 34.38,169.41 95.47,230.5l256.47 256.47 -256.47 256.47c-61.42,60.9 -96.03,143.94 -96.03,230.5 0,86.56 34.6,169.59 96.03,230.51l-0.01 -0.01z"/>
  </g>
 </g>
</svg>
